<svg xmlns:inkscape="http://www.inkscape.org/namespaces/inkscape" xmlns:sodipodi="http://sodipodi.sourceforge.net/DTD/sodipodi-0.dtd" xmlns="http://www.w3.org/2000/svg" xmlns:svg="http://www.w3.org/2000/svg" version="1.1" id="svg2" sodipodi:docname="5583.eps" viewBox="0 0 1496 1496">
  <defs id="defs6"/>
  <sodipodi:namedview id="namedview4" pagecolor="#ffffff" bordercolor="#000000" borderopacity="0.25" inkscape:showpageshadow="2" inkscape:pageopacity="0.0" inkscape:pagecheckerboard="0" inkscape:deskcolor="#d1d1d1"/>
  <g id="g8" inkscape:groupmode="layer" inkscape:label="ink_ext_XXXXXX" transform="matrix(1.3333333,0,0,-1.3333333,0,1496)">
    <g id="g10" transform="scale(0.1)">
      <path d="M 11220,0 H 0 V 11220 H 11220 V 0" style="fill:#ffffff;fill-opacity:1;fill-rule:nonzero;stroke:none" id="path12"/>
      <path d="m 7363.4,6793.94 v 569.52 H 3856.42 v -502.59 h 766.19 c 12.47,99.62 96.47,177.03 199.35,177.03 111.6,0 202.02,-90.49 202.02,-202.03 0,-111.57 -90.42,-202.04 -202.02,-202.04 -102.88,0 -186.88,77.31 -199.35,176.93 H 3856.42 V 6486.7 h 597.7 v -50.05 h -597.7 v -691.48 h 1461.69 c 2.06,-0.39 144.64,-1.96 238.87,90.3 56.47,55.32 85.16,133.84 85.16,233.61 v 298.24 c -99.62,12.5 -177.08,96.57 -177.08,199.48 0,111.63 90.53,202.02 202.07,202.02 111.54,0 202.02,-90.39 202.02,-202.02 0,-102.91 -77.4,-186.98 -177.03,-199.48 v -298.24 c 0,-113.93 -33.83,-204.71 -100.33,-269.71 -102.65,-100.01 -247.05,-104.31 -271.02,-104.31 h -3.14 -1461.21 v -437.38 h 1738.15 c 12.58,99.61 96.58,176.96 199.53,176.96 111.53,0 202.08,-90.47 202.08,-202.05 0,-111.56 -90.55,-202.04 -202.08,-202.04 -102.95,0 -187.07,77.4 -199.53,177.02 H 3856.42 v -293.31 h 1202.36 c 3.63,-0.15 271.91,-12.75 271.91,-331.38 v -726.43 h 780.18 v 536.97 h 50.17 v -536.97 h 272.4 v 677.34 c -99.61,12.41 -177.02,96.44 -177.02,199.42 0,111.6 90.48,202.07 202.02,202.07 111.54,0 202.01,-90.47 202.01,-202.07 0,-102.95 -77.22,-186.92 -176.84,-199.42 v -677.34 h 249.89 v 400.85 h 50.05 V 3856.45 H 7363.4 V 6222.1 h -766.01 c -12.47,-99.58 -96.47,-176.93 -199.54,-176.93 -111.53,0 -202.01,90.39 -202.01,201.96 0,111.63 90.48,202.02 202.01,202.02 103.07,0 187.07,-77.28 199.54,-176.93 h 766.01 v 471.6 h -561.45 v 50.12 h 561.45" style="fill:#616e7d;fill-opacity:1;fill-rule:nonzero;stroke:none" id="path14"/>
      <path d="m 4454.12,4329.24 c -103.13,0 -187.14,77.28 -199.6,176.92 h -398.1 v -649.71 h 1424.22 v 726.43 c 0,270.8 -213.51,281.02 -222.65,281.27 H 3856.42 v -307.88 h 398.1 c 12.46,99.62 96.47,176.94 199.6,176.94 111.53,0 201.84,-90.39 201.84,-201.96 0,-111.63 -90.31,-202.01 -201.84,-202.01" style="fill:#616e7d;fill-opacity:1;fill-rule:nonzero;stroke:none" id="path16"/>
      <path d="M 7463.62,3756.28 H 3756.19 v 3707.44 h 3707.43 z m 945.7,3206.42 v 150.27 h -594.97 v 372.04 c 0,181.93 -147.44,329.42 -329.36,329.42 h -372.08 v 594.98 h -150.34 v -594.98 h -325.71 v 594.98 h -150.22 v -594.98 h -325.6 v 594.98 h -150.28 v -594.98 h -325.71 v 594.98 h -150.27 v -594.98 h -325.73 v 594.98 h -150.27 v -594.98 h -325.54 v 594.98 h -150.27 v -594.98 h -325.72 v 594.98 h -150.28 v -594.98 h -371.96 c -181.92,0 -329.36,-147.49 -329.36,-329.42 V 7112.97 H 2810.68 V 6962.7 h 594.97 V 6637.07 H 2810.68 V 6486.7 h 594.97 V 6161.13 H 2810.68 V 6010.8 h 594.97 v -325.66 h -594.97 v -150.27 h 594.97 v -325.73 h -594.97 v -150.27 h 594.97 v -325.66 h -594.97 v -150.33 h 594.97 V 4257.3 h -594.97 v -150.36 h 594.97 v -372.05 c 0,-181.89 147.44,-329.32 329.36,-329.32 h 371.96 v -594.98 h 150.28 v 594.98 h 325.72 v -594.98 h 150.27 v 594.98 h 325.54 v -594.98 h 150.27 v 594.98 h 325.73 v -594.98 h 150.27 v 594.98 h 325.71 v -594.98 h 150.28 v 594.98 h 325.6 v -594.98 h 150.22 v 594.98 h 325.71 v -594.98 h 150.34 v 594.98 h 372.08 c 181.92,0 329.36,147.43 329.36,329.32 v 372.05 h 594.97 v 150.36 h -594.97 v 325.58 h 594.97 v 150.33 h -594.97 v 325.66 h 594.97 v 150.27 h -594.97 v 325.73 h 594.97 v 150.27 h -594.97 v 325.66 h 594.97 v 150.33 h -594.97 v 325.57 h 594.97 v 150.37 h -594.97 v 325.63 h 594.97" style="fill:#616e7d;fill-opacity:1;fill-rule:nonzero;stroke:none" id="path18"/>
      <path d="m 6397.85,6449.15 c -111.53,0 -202.01,-90.39 -202.01,-202.02 0,-111.57 90.48,-201.96 202.01,-201.96 103.07,0 187.07,77.35 199.54,176.93 h 766.01 v 50.12 h -766.01 c -12.47,99.65 -96.47,176.93 -199.54,176.93" style="fill:#ffffff;fill-opacity:1;fill-rule:nonzero;stroke:none" id="path20"/>
      <path d="m 4254.52,4556.27 h -398.1 v -50.11 h 398.1 c 12.46,-99.64 96.47,-176.92 199.6,-176.92 111.53,0 201.84,90.38 201.84,202.01 0,111.57 -90.31,201.96 -201.84,201.96 -103.13,0 -187.14,-77.32 -199.6,-176.94" style="fill:#ffffff;fill-opacity:1;fill-rule:nonzero;stroke:none" id="path22"/>
      <path d="m 5556.98,5835.47 c -94.23,-92.26 -236.81,-90.69 -238.87,-90.3 H 3856.42 v -50.11 h 1461.21 3.14 c 23.97,0 168.37,4.3 271.02,104.31 66.5,65 100.33,155.78 100.33,269.71 v 298.24 c 99.63,12.5 177.03,96.57 177.03,199.48 0,111.63 -90.48,202.02 -202.02,202.02 -111.54,0 -202.07,-90.39 -202.07,-202.02 0,-102.91 77.46,-186.98 177.08,-199.48 v -298.24 c 0,-99.77 -28.69,-178.29 -85.16,-233.61" style="fill:#ffffff;fill-opacity:1;fill-rule:nonzero;stroke:none" id="path24"/>
      <path d="m 3856.42,5257.68 v -50.11 h 1738.15 c -0.97,8.29 -2.55,16.46 -2.55,25.02 0,8.57 1.58,16.74 2.55,25.09 H 3856.42" style="fill:#ffffff;fill-opacity:1;fill-rule:nonzero;stroke:none" id="path26"/>
      <path d="m 5330.69,3856.45 v 726.43 c 0,318.63 -268.28,331.23 -271.91,331.38 H 3856.42 v -50.11 h 1201.57 c 9.14,-0.25 222.65,-10.47 222.65,-281.27 v -726.43 h 50.05" style="fill:#ffffff;fill-opacity:1;fill-rule:nonzero;stroke:none" id="path28"/>
      <path d="m 6433.44,3856.45 h 50.17 v 677.34 c -8.36,-1.03 -16.52,-2.54 -25.17,-2.54 -8.48,0 -16.71,1.51 -25,2.54 v -677.34" style="fill:#ffffff;fill-opacity:1;fill-rule:nonzero;stroke:none" id="path30"/>
      <path d="m 6161.04,3856.45 v 536.97 h -50.17 v -536.97 h 50.17" style="fill:#ffffff;fill-opacity:1;fill-rule:nonzero;stroke:none" id="path32"/>
      <path d="m 6783.55,3856.45 v 400.85 h -50.05 v -400.85 h 50.05" style="fill:#ffffff;fill-opacity:1;fill-rule:nonzero;stroke:none" id="path34"/>
      <path d="m 7363.4,6743.82 v 50.12 h -561.45 v -50.12 h 561.45" style="fill:#ffffff;fill-opacity:1;fill-rule:nonzero;stroke:none" id="path36"/>
      <path d="m 3856.42,6860.87 v -50.11 h 766.19 c -1.1,8.35 -2.54,16.52 -2.54,25.11 0,8.57 1.44,16.7 2.54,25 h -766.19" style="fill:#ffffff;fill-opacity:1;fill-rule:nonzero;stroke:none" id="path38"/>
      <path d="m 4454.12,6436.65 v 50.05 h -597.7 v -50.05 h 597.7" style="fill:#ffffff;fill-opacity:1;fill-rule:nonzero;stroke:none" id="path40"/>
      <path d="m 3856.42,4506.16 v 2857.3 H 7363.4 V 3856.45 h -579.85 -50.05 -249.89 -50.17 -272.4 -50.17 -780.18 -50.05 -1424.22 z m 3607.2,-749.88 V 7463.72 H 3756.19 V 3756.28 h 3707.43" style="fill:#82bfab;fill-opacity:1;fill-rule:nonzero;stroke:none" id="path42"/>
      <path d="m 4622.61,6860.87 c -1.1,-8.3 -2.54,-16.43 -2.54,-25 0,-8.59 1.44,-16.76 2.54,-25.11 12.47,-99.62 96.47,-176.93 199.35,-176.93 111.6,0 202.02,90.47 202.02,202.04 0,111.54 -90.42,202.03 -202.02,202.03 -102.88,0 -186.88,-77.41 -199.35,-177.03" style="fill:#aad4c8;fill-opacity:1;fill-rule:nonzero;stroke:none" id="path44"/>
      <path d="m 5594.57,5257.68 c -0.97,-8.35 -2.55,-16.52 -2.55,-25.09 0,-8.56 1.58,-16.73 2.55,-25.02 12.46,-99.62 96.58,-177.02 199.53,-177.02 111.53,0 202.08,90.48 202.08,202.04 0,111.58 -90.55,202.05 -202.08,202.05 -102.95,0 -186.95,-77.35 -199.53,-176.96" style="fill:#aad4c8;fill-opacity:1;fill-rule:nonzero;stroke:none" id="path46"/>
      <path d="m 6256.42,4733.21 c 0,-102.98 77.41,-187.01 177.02,-199.42 8.29,-1.03 16.52,-2.54 25,-2.54 8.65,0 16.81,1.51 25.17,2.54 99.62,12.5 176.84,96.47 176.84,199.42 0,111.6 -90.47,202.07 -202.01,202.07 -111.54,0 -202.02,-90.47 -202.02,-202.07" style="fill:#82bfab;fill-opacity:1;fill-rule:nonzero;stroke:none" id="path48"/>
    </g>
  </g>
</svg>